<svg version="1.1" xmlns="http://www.w3.org/2000/svg" xmlns:xlink="http://www.w3.org/1999/xlink" width="1213.18994140625" height="452"><defs/><g><g transform="translate(-6,2) scale(1,1)"><path fill="#ffffff" stroke="none" d="M 147.5 64 L 203.578125 64 Q 220.078125 64 220.078125 80.5 L 220.078125 79.5 Q 220.078125 96 203.578125 96 L 147.5 96 Q 131 96 131 79.5 L 131 80.5 Q 131 64 147.5 64 Z"/></g><g transform="translate(-6,2) scale(1,1)"><path fill="none" stroke="#000000" d="M 147.5 64 L 203.578125 64 Q 220.078125 64 220.078125 80.5 L 220.078125 79.5 Q 220.078125 96 203.578125 96 L 147.5 96 Q 131 96 131 79.5 L 131 80.5 Q 131 64 147.5 64 Z" stroke-miterlimit="10"/></g><g transform="translate(-6,2) scale(1,1)"><g><path fill="none" stroke="none"/><text fill="#000000" stroke="none" font-family="Arial" font-size="13px" font-style="normal" font-weight="normal" text-decoration="none" x="162.5390625" y="86.5">开始</text></g></g><g transform="translate(-6,2) scale(1,1)"><rect fill="#ffffff" stroke="none" x="81" y="117" width="188" height="32"/></g><g transform="translate(-6,2) scale(1,1)"><path fill="none" stroke="#000000" d="M 81 117 L 269 117 L 269 149 L 81 149 L 81 117 Z Z" stroke-miterlimit="10"/></g><g transform="translate(-6,2) scale(1,1)"><g><path fill="none" stroke="none"/><text fill="#000000" stroke="none" font-family="Arial" font-size="13px" font-style="normal" font-weight="normal" text-decoration="none" x="90.5" y="139.5">获得登陆表单的用户名和密码</text></g></g><g transform="translate(-6,2) scale(1,1)"><path fill="#ffffff" stroke="none" d="M 72 184.5 L 175.5 170 L 279 184.5 L 175.5 199 L 72 184.5"/></g><g transform="translate(-6,2) scale(1,1)"><path fill="none" stroke="#000000" d="M 72 184.5 L 175.5 170 L 279 184.5 L 175.5 199 L 72 184.5 L 72 184.5" stroke-miterlimit="10"/></g><g transform="translate(-6,2) scale(1,1)"><g><path fill="none" stroke="none"/><text fill="#000000" stroke="none" font-family="Arial" font-size="13px" font-style="normal" font-weight="normal" text-decoration="none" x="123.5" y="191">是否验证登陆通过</text></g></g><g transform="translate(-6,2) scale(1,1)"><rect fill="#ffffff" stroke="none" x="121" y="220" width="109.30810546875" height="32"/></g><g transform="translate(-6,2) scale(1,1)"><path fill="none" stroke="#000000" d="M 121 220 L 230.30810546875 220 L 230.30810546875 252 L 121 252 L 121 220 Z Z" stroke-miterlimit="10"/></g><g transform="translate(-6,2) scale(1,1)"><g><path fill="none" stroke="none"/><text fill="#000000" stroke="none" font-family="Arial" font-size="13px" font-style="normal" font-weight="normal" text-decoration="none" x="130.5" y="242.5">跳转到index.jsp</text></g></g><g transform="translate(-6,2) scale(1,1)"><path fill="#ffffff" stroke="none" d="M 147.5 273 L 203.578125 273 Q 220.078125 273 220.078125 289.5 L 220.078125 288.5 Q 220.078125 305 203.578125 305 L 147.5 305 Q 131 305 131 288.5 L 131 289.5 Q 131 273 147.5 273 Z"/></g><g transform="translate(-6,2) scale(1,1)"><path fill="none" stroke="#000000" d="M 147.5 273 L 203.578125 273 Q 220.078125 273 220.078125 289.5 L 220.078125 288.5 Q 220.078125 305 203.578125 305 L 147.5 305 Q 131 305 131 288.5 L 131 289.5 Q 131 273 147.5 273 Z" stroke-miterlimit="10"/></g><g transform="translate(-6,2) scale(1,1)"><g><path fill="none" stroke="none"/><text fill="#000000" stroke="none" font-family="Arial" font-size="13px" font-style="normal" font-weight="normal" text-decoration="none" x="162.5390625" y="295.5">结束</text></g></g><g transform="translate(-6,2) scale(1,1)"><path fill="none" stroke="#000000" d="M 175 96 L 175 117" stroke-miterlimit="10"/></g><g transform="translate(-6,2) scale(1,1)"><path fill="#000000" stroke="none" d="M 170.790482243984 106.83732514237585 L 175 117 L 179.209517756016 106.83732514237585"/></g><g transform="translate(-6,2) scale(1,1)"><path fill="none" stroke="#000000" d="M 170.790482243984 106.83732514237585 L 175 117 L 179.209517756016 106.83732514237585 L 170.790482243984 106.83732514237585" stroke-miterlimit="10"/></g><g transform="translate(-6,2) scale(1,1)"><path fill="none" stroke="#000000" d="M 175 149 L 175 170" stroke-miterlimit="10"/></g><g transform="translate(-6,2) scale(1,1)"><path fill="#000000" stroke="none" d="M 170.790482243984 159.83732514237585 L 175 170 L 179.209517756016 159.83732514237585"/></g><g transform="translate(-6,2) scale(1,1)"><path fill="none" stroke="#000000" d="M 170.790482243984 159.83732514237585 L 175 170 L 179.209517756016 159.83732514237585 L 170.790482243984 159.83732514237585" stroke-miterlimit="10"/></g><g transform="translate(-6,2) scale(1,1)"><path fill="none" stroke="#000000" d="M 175 199 L 175 220" stroke-miterlimit="10"/></g><g transform="translate(-6,2) scale(1,1)"><path fill="#000000" stroke="none" d="M 170.790482243984 209.83732514237585 L 175 220 L 179.209517756016 209.83732514237585"/></g><g transform="translate(-6,2) scale(1,1)"><path fill="none" stroke="#000000" d="M 170.790482243984 209.83732514237585 L 175 220 L 179.209517756016 209.83732514237585 L 170.790482243984 209.83732514237585" stroke-miterlimit="10"/></g><g transform="translate(-6,2) scale(1,1)"><g><path fill="none" stroke="none"/><text fill="#000000" stroke="none" font-family="Arial" font-size="13px" font-style="normal" font-weight="normal" text-decoration="none" x="183" y="215">是</text></g></g><g transform="translate(-6,2) scale(1,1)"><path fill="none" stroke="#000000" d="M 175 252 L 175 273" stroke-miterlimit="10"/></g><g transform="translate(-6,2) scale(1,1)"><path fill="#000000" stroke="none" d="M 170.790482243984 262.83732514237585 L 175 273 L 179.209517756016 262.83732514237585"/></g><g transform="translate(-6,2) scale(1,1)"><path fill="none" stroke="#000000" d="M 170.790482243984 262.83732514237585 L 175 273 L 179.209517756016 262.83732514237585 L 170.790482243984 262.83732514237585" stroke-miterlimit="10"/></g><g transform="translate(-6,2) scale(1,1)"><rect fill="#ffffff" stroke="none" x="312" y="120" width="110" height="32"/></g><g transform="translate(-6,2) scale(1,1)"><path fill="none" stroke="#000000" d="M 312 120 L 422 120 L 422 152 L 312 152 L 312 120 Z Z" stroke-miterlimit="10"/></g><g transform="translate(-6,2) scale(1,1)"><g><path fill="none" stroke="none"/><text fill="#000000" stroke="none" font-family="Arial" font-size="13px" font-style="normal" font-weight="normal" text-decoration="none" x="321.5" y="142.5">跳转到登陆页面</text></g></g><g transform="translate(-6,2) scale(1,1)"><path fill="none" stroke="#000000" d="M 279 184 L 352 184 M 352 184 A 8 8 0 0 0 360 176 L 360 152" stroke-miterlimit="10"/></g><g transform="translate(-6,2) scale(1,1)"><path fill="#000000" stroke="none" d="M 364.209517756016 162.16267485762415 L 360 152 L 355.790482243984 162.16267485762415"/></g><g transform="translate(-6,2) scale(1,1)"><path fill="none" stroke="#000000" d="M 364.209517756016 162.16267485762415 L 360 152 L 355.790482243984 162.16267485762415 L 364.209517756016 162.16267485762415" stroke-miterlimit="10"/></g><g transform="translate(-6,2) scale(1,1)"><g><path fill="none" stroke="none"/><text fill="#000000" stroke="none" font-family="Arial" font-size="13px" font-style="normal" font-weight="normal" text-decoration="none" x="339" y="190">否</text></g></g><g transform="translate(-6,2) scale(1,1)"><path fill="none" stroke="#000000" d="M 312 135 L 269 135" stroke-miterlimit="10"/></g><g transform="translate(-6,2) scale(1,1)"><path fill="#000000" stroke="none" d="M 279.16267485762415 130.790482243984 L 269 135 L 279.16267485762415 139.209517756016"/></g><g transform="translate(-6,2) scale(1,1)"><path fill="none" stroke="#000000" d="M 279.16267485762415 130.790482243984 L 269 135 L 279.16267485762415 139.209517756016 L 279.16267485762415 130.790482243984" stroke-miterlimit="10"/></g><g transform="translate(-6,2) scale(1,1)"><path fill="#ffffff" stroke="none" d="M 16 16 L 89 16 L 99 26 L 99 54 L 16 54 L 16 16"/></g><g transform="translate(-6,2) scale(1,1)"><path fill="none" stroke="#000000" d="M 16 16 L 89 16 L 99 26 L 99 54 L 16 54 L 16 16 L 16 16" stroke-miterlimit="10"/></g><g transform="translate(-6,2) scale(1,1)"><path fill="none" stroke="#000000" d="M 89 16 L 89 26 L 99 26 L 89 16" stroke-miterlimit="10"/></g><g transform="translate(-6,2) scale(1,1)"><g><path fill="none" stroke="none"/><text fill="#000000" stroke="none" font-family="Arial" font-size="13px" font-style="normal" font-weight="normal" text-decoration="none" x="21" y="34">Signin.java</text></g></g><g transform="translate(-6,2) scale(1,1)"><path fill="#ffffff" stroke="none" d="M 488 16 L 605.814453125 16 L 615.814453125 26 L 615.814453125 54 L 488 54 L 488 16"/></g><g transform="translate(-6,2) scale(1,1)"><path fill="none" stroke="#000000" d="M 488 16 L 605.814453125 16 L 615.814453125 26 L 615.814453125 54 L 488 54 L 488 16 L 488 16" stroke-miterlimit="10"/></g><g transform="translate(-6,2) scale(1,1)"><path fill="none" stroke="#000000" d="M 605.814453125 16 L 605.814453125 26 L 615.814453125 26 L 605.814453125 16" stroke-miterlimit="10"/></g><g transform="translate(-6,2) scale(1,1)"><g><path fill="none" stroke="none"/><text fill="#000000" stroke="none" font-family="Arial" font-size="13px" font-style="normal" font-weight="normal" text-decoration="none" x="493" y="34">UserDBProc.signin</text></g></g><g transform="translate(-6,2) scale(1,1)"><path fill="#ffffff" stroke="none" d="M 584.5 96 L 640.578125 96 Q 657.078125 96 657.078125 112.5 L 657.078125 111.5 Q 657.078125 128 640.578125 128 L 584.5 128 Q 568 128 568 111.5 L 568 112.5 Q 568 96 584.5 96 Z"/></g><g transform="translate(-6,2) scale(1,1)"><path fill="none" stroke="#000000" d="M 584.5 96 L 640.578125 96 Q 657.078125 96 657.078125 112.5 L 657.078125 111.5 Q 657.078125 128 640.578125 128 L 584.5 128 Q 568 128 568 111.5 L 568 112.5 Q 568 96 584.5 96 Z" stroke-miterlimit="10"/></g><g transform="translate(-6,2) scale(1,1)"><g><path fill="none" stroke="none"/><text fill="#000000" stroke="none" font-family="Arial" font-size="13px" font-style="normal" font-weight="normal" text-decoration="none" x="599.5390625" y="118.5">开始</text></g></g><g transform="translate(-6,2) scale(1,1)"><rect fill="#ffffff" stroke="none" x="552" y="160" width="136" height="32"/></g><g transform="translate(-6,2) scale(1,1)"><path fill="none" stroke="#000000" d="M 552 160 L 688 160 L 688 192 L 552 192 L 552 160 Z Z" stroke-miterlimit="10"/></g><g transform="translate(-6,2) scale(1,1)"><g><path fill="none" stroke="none"/><text fill="#000000" stroke="none" font-family="Arial" font-size="13px" font-style="normal" font-weight="normal" text-decoration="none" x="561.5" y="182.5">根据参数查询数据库</text></g></g><g transform="translate(-6,2) scale(1,1)"><path fill="#ffffff" stroke="none" d="M 488 246.5 L 617.5 232 L 747 246.5 L 617.5 261 L 488 246.5"/></g><g transform="translate(-6,2) scale(1,1)"><path fill="none" stroke="#000000" d="M 488 246.5 L 617.5 232 L 747 246.5 L 617.5 261 L 488 246.5 L 488 246.5" stroke-miterlimit="10"/></g><g transform="translate(-6,2) scale(1,1)"><g><path fill="none" stroke="none"/><text fill="#000000" stroke="none" font-family="Arial" font-size="13px" font-style="normal" font-weight="normal" text-decoration="none" x="552.5" y="253">数据库中是否有该用户</text></g></g><g transform="translate(-6,2) scale(1,1)"><rect fill="#ffffff" stroke="none" x="520" y="328" width="73.18994140625" height="32"/></g><g transform="translate(-6,2) scale(1,1)"><path fill="none" stroke="#000000" d="M 520 328 L 593.18994140625 328 L 593.18994140625 360 L 520 360 L 520 328 Z Z" stroke-miterlimit="10"/></g><g transform="translate(-6,2) scale(1,1)"><g><path fill="none" stroke="none"/><text fill="#000000" stroke="none" font-family="Arial" font-size="13px" font-style="normal" font-weight="normal" text-decoration="none" x="532.39453125" y="350.5">返回true</text></g></g><g transform="translate(-6,2) scale(1,1)"><rect fill="#ffffff" stroke="none" x="640" y="328" width="73.18994140625" height="32"/></g><g transform="translate(-6,2) scale(1,1)"><path fill="none" stroke="#000000" d="M 640 328 L 713.18994140625 328 L 713.18994140625 360 L 640 360 L 640 328 Z Z" stroke-miterlimit="10"/></g><g transform="translate(-6,2) scale(1,1)"><g><path fill="none" stroke="none"/><text fill="#000000" stroke="none" font-family="Arial" font-size="13px" font-style="normal" font-weight="normal" text-decoration="none" x="649.864990234375" y="350.5">返回false</text></g></g><g transform="translate(-6,2) scale(1,1)"><path fill="#ffffff" stroke="none" d="M 568.5 408 L 672.578125 408 Q 689.078125 408 689.078125 424.5 L 689.078125 423.5 Q 689.078125 440 672.578125 440 L 568.5 440 Q 552 440 552 423.5 L 552 424.5 Q 552 408 568.5 408 Z"/></g><g transform="translate(-6,2) scale(1,1)"><path fill="none" stroke="#000000" d="M 568.5 408 L 672.578125 408 Q 689.078125 408 689.078125 424.5 L 689.078125 423.5 Q 689.078125 440 672.578125 440 L 568.5 440 Q 552 440 552 423.5 L 552 424.5 Q 552 408 568.5 408 Z" stroke-miterlimit="10"/></g><g transform="translate(-6,2) scale(1,1)"><g><path fill="none" stroke="none"/><text fill="#000000" stroke="none" font-family="Arial" font-size="13px" font-style="normal" font-weight="normal" text-decoration="none" x="607.5390625" y="430.5">结束</text></g></g><g transform="translate(-6,2) scale(1,1)"><path fill="none" stroke="#000000" d="M 616 128 L 616 160" stroke-miterlimit="10"/></g><g transform="translate(-6,2) scale(1,1)"><path fill="#000000" stroke="none" d="M 611.790482243984 149.83732514237585 L 616 160 L 620.209517756016 149.83732514237585"/></g><g transform="translate(-6,2) scale(1,1)"><path fill="none" stroke="#000000" d="M 611.790482243984 149.83732514237585 L 616 160 L 620.209517756016 149.83732514237585 L 611.790482243984 149.83732514237585" stroke-miterlimit="10"/></g><g transform="translate(-6,2) scale(1,1)"><path fill="none" stroke="#000000" d="M 619 192 L 619 232" stroke-miterlimit="10"/></g><g transform="translate(-6,2) scale(1,1)"><path fill="#000000" stroke="none" d="M 614.790482243984 221.83732514237585 L 619 232 L 623.209517756016 221.83732514237585"/></g><g transform="translate(-6,2) scale(1,1)"><path fill="none" stroke="#000000" d="M 614.790482243984 221.83732514237585 L 619 232 L 623.209517756016 221.83732514237585 L 614.790482243984 221.83732514237585" stroke-miterlimit="10"/></g><g transform="translate(-6,2) scale(1,1)"><path fill="none" stroke="#000000" d="M 616 261 L 616 280 M 616 280 A 8 8 0 0 1 608 288 L 564 288 M 564 288 A 8 8 0 0 0 556 296 L 556 328" stroke-miterlimit="10"/></g><g transform="translate(-6,2) scale(1,1)"><path fill="#000000" stroke="none" d="M 551.790482243984 317.83732514237585 L 556 328 L 560.209517756016 317.83732514237585"/></g><g transform="translate(-6,2) scale(1,1)"><path fill="none" stroke="#000000" d="M 551.790482243984 317.83732514237585 L 556 328 L 560.209517756016 317.83732514237585 L 551.790482243984 317.83732514237585" stroke-miterlimit="10"/></g><g transform="translate(-6,2) scale(1,1)"><g><path fill="none" stroke="none"/><text fill="#000000" stroke="none" font-family="Arial" font-size="13px" font-style="normal" font-weight="normal" text-decoration="none" x="579" y="310">是</text></g></g><g transform="translate(-6,2) scale(1,1)"><path fill="none" stroke="#000000" d="M 616 261 L 616 280 M 616 280 A 8 8 0 0 0 624 288 L 668 288 M 668 288 A 8 8 0 0 1 676 296 L 676 328" stroke-miterlimit="10"/></g><g transform="translate(-6,2) scale(1,1)"><path fill="#000000" stroke="none" d="M 671.790482243984 317.83732514237585 L 676 328 L 680.209517756016 317.83732514237585"/></g><g transform="translate(-6,2) scale(1,1)"><path fill="none" stroke="#000000" d="M 671.790482243984 317.83732514237585 L 676 328 L 680.209517756016 317.83732514237585 L 671.790482243984 317.83732514237585" stroke-miterlimit="10"/></g><g transform="translate(-6,2) scale(1,1)"><g><path fill="none" stroke="none"/><text fill="#000000" stroke="none" font-family="Arial" font-size="13px" font-style="normal" font-weight="normal" text-decoration="none" x="640" y="308">否</text></g></g><g transform="translate(-6,2) scale(1,1)"><path fill="none" stroke="#000000" d="M 576 360 L 576 408" stroke-miterlimit="10"/></g><g transform="translate(-6,2) scale(1,1)"><path fill="#000000" stroke="none" d="M 571.790482243984 397.83732514237585 L 576 408 L 580.209517756016 397.83732514237585"/></g><g transform="translate(-6,2) scale(1,1)"><path fill="none" stroke="#000000" d="M 571.790482243984 397.83732514237585 L 576 408 L 580.209517756016 397.83732514237585 L 571.790482243984 397.83732514237585" stroke-miterlimit="10"/></g><g transform="translate(-6,2) scale(1,1)"><path fill="none" stroke="#000000" d="M 664 360 L 664 408" stroke-miterlimit="10"/></g><g transform="translate(-6,2) scale(1,1)"><path fill="#000000" stroke="none" d="M 659.790482243984 397.83732514237585 L 664 408 L 668.209517756016 397.83732514237585"/></g><g transform="translate(-6,2) scale(1,1)"><path fill="none" stroke="#000000" d="M 659.790482243984 397.83732514237585 L 664 408 L 668.209517756016 397.83732514237585 L 659.790482243984 397.83732514237585" stroke-miterlimit="10"/></g><g transform="translate(-6,2) scale(1,1)"><path fill="#ffffff" stroke="none" d="M 744 8 L 802 8 L 812 18 L 812 46 L 744 46 L 744 8"/></g><g transform="translate(-6,2) scale(1,1)"><path fill="none" stroke="#000000" d="M 744 8 L 802 8 L 812 18 L 812 46 L 744 46 L 744 8 L 744 8" stroke-miterlimit="10"/></g><g transform="translate(-6,2) scale(1,1)"><path fill="none" stroke="#000000" d="M 802 8 L 802 18 L 812 18 L 802 8" stroke-miterlimit="10"/></g><g transform="translate(-6,2) scale(1,1)"><g><path fill="none" stroke="none"/><text fill="#000000" stroke="none" font-family="Arial" font-size="13px" font-style="normal" font-weight="normal" text-decoration="none" x="749" y="26">News</text></g></g><g transform="translate(-6,2) scale(1,1)"><path fill="#ffffff" stroke="none" d="M 896.5 80 L 952.578125 80 Q 969.078125 80 969.078125 96.5 L 969.078125 95.5 Q 969.078125 112 952.578125 112 L 896.5 112 Q 880 112 880 95.5 L 880 96.5 Q 880 80 896.5 80 Z"/></g><g transform="translate(-6,2) scale(1,1)"><path fill="none" stroke="#000000" d="M 896.5 80 L 952.578125 80 Q 969.078125 80 969.078125 96.5 L 969.078125 95.5 Q 969.078125 112 952.578125 112 L 896.5 112 Q 880 112 880 95.5 L 880 96.5 Q 880 80 896.5 80 Z" stroke-miterlimit="10"/></g><g transform="translate(-6,2) scale(1,1)"><g><path fill="none" stroke="none"/><text fill="#000000" stroke="none" font-family="Arial" font-size="13px" font-style="normal" font-weight="normal" text-decoration="none" x="911.5390625" y="102.5">开始</text></g></g><g transform="translate(-6,2) scale(1,1)"><rect fill="#ffffff" stroke="none" x="880" y="136" width="84" height="32"/></g><g transform="translate(-6,2) scale(1,1)"><path fill="none" stroke="#000000" d="M 880 136 L 964 136 L 964 168 L 880 168 L 880 136 Z Z" stroke-miterlimit="10"/></g><g transform="translate(-6,2) scale(1,1)"><g><path fill="none" stroke="none"/><text fill="#000000" stroke="none" font-family="Arial" font-size="13px" font-style="normal" font-weight="normal" text-decoration="none" x="889.5" y="158.5">查询数据库</text></g></g><g transform="translate(-6,2) scale(1,1)"><path fill="#ffffff" stroke="none" d="M 784 214.5 L 926.5 200 L 1069 214.5 L 926.5 229 L 784 214.5"/></g><g transform="translate(-6,2) scale(1,1)"><path fill="none" stroke="#000000" d="M 784 214.5 L 926.5 200 L 1069 214.5 L 926.5 229 L 784 214.5 L 784 214.5" stroke-miterlimit="10"/></g><g transform="translate(-6,2) scale(1,1)"><g><path fill="none" stroke="none"/><text fill="#000000" stroke="none" font-family="Arial" font-size="13px" font-style="normal" font-weight="normal" text-decoration="none" x="855" y="221">比较用户权限和资源权限</text></g></g><g transform="translate(-6,2) scale(1,1)"><rect fill="#ffffff" stroke="none" x="880" y="256" width="81.841796875" height="32"/></g><g transform="translate(-6,2) scale(1,1)"><path fill="none" stroke="#000000" d="M 880 256 L 961.841796875 256 L 961.841796875 288 L 880 288 L 880 256 Z Z" stroke-miterlimit="10"/></g><g transform="translate(-6,2) scale(1,1)"><g><path fill="none" stroke="none"/><text fill="#000000" stroke="none" font-family="Arial" font-size="13px" font-style="normal" font-weight="normal" text-decoration="none" x="889.5" y="278.5">传递给JSP</text></g></g><g transform="translate(-6,2) scale(1,1)"><path fill="#ffffff" stroke="none" d="M 896.5 320 L 952.578125 320 Q 969.078125 320 969.078125 336.5 L 969.078125 335.5 Q 969.078125 352 952.578125 352 L 896.5 352 Q 880 352 880 335.5 L 880 336.5 Q 880 320 896.5 320 Z"/></g><g transform="translate(-6,2) scale(1,1)"><path fill="none" stroke="#000000" d="M 896.5 320 L 952.578125 320 Q 969.078125 320 969.078125 336.5 L 969.078125 335.5 Q 969.078125 352 952.578125 352 L 896.5 352 Q 880 352 880 335.5 L 880 336.5 Q 880 320 896.5 320 Z" stroke-miterlimit="10"/></g><g transform="translate(-6,2) scale(1,1)"><g><path fill="none" stroke="none"/><text fill="#000000" stroke="none" font-family="Arial" font-size="13px" font-style="normal" font-weight="normal" text-decoration="none" x="911.5390625" y="342.5">结束</text></g></g><g transform="translate(-6,2) scale(1,1)"><path fill="none" stroke="#000000" d="M 923 112 L 923 136" stroke-miterlimit="10"/></g><g transform="translate(-6,2) scale(1,1)"><path fill="#000000" stroke="none" d="M 918.790482243984 125.83732514237585 L 923 136 L 927.209517756016 125.83732514237585"/></g><g transform="translate(-6,2) scale(1,1)"><path fill="none" stroke="#000000" d="M 918.790482243984 125.83732514237585 L 923 136 L 927.209517756016 125.83732514237585 L 918.790482243984 125.83732514237585" stroke-miterlimit="10"/></g><g transform="translate(-6,2) scale(1,1)"><path fill="none" stroke="#000000" d="M 923 168 L 923 200" stroke-miterlimit="10"/></g><g transform="translate(-6,2) scale(1,1)"><path fill="#000000" stroke="none" d="M 918.790482243984 189.83732514237585 L 923 200 L 927.209517756016 189.83732514237585"/></g><g transform="translate(-6,2) scale(1,1)"><path fill="none" stroke="#000000" d="M 918.790482243984 189.83732514237585 L 923 200 L 927.209517756016 189.83732514237585 L 918.790482243984 189.83732514237585" stroke-miterlimit="10"/></g><g transform="translate(-6,2) scale(1,1)"><path fill="none" stroke="#000000" d="M 924 229 L 924 256" stroke-miterlimit="10"/></g><g transform="translate(-6,2) scale(1,1)"><path fill="#000000" stroke="none" d="M 919.790482243984 245.83732514237585 L 924 256 L 928.209517756016 245.83732514237585"/></g><g transform="translate(-6,2) scale(1,1)"><path fill="none" stroke="#000000" d="M 919.790482243984 245.83732514237585 L 924 256 L 928.209517756016 245.83732514237585 L 919.790482243984 245.83732514237585" stroke-miterlimit="10"/></g><g transform="translate(-6,2) scale(1,1)"><g><path fill="none" stroke="none"/><text fill="#000000" stroke="none" font-family="Arial" font-size="13px" font-style="normal" font-weight="normal" text-decoration="none" x="936" y="248">有权限</text></g></g><g transform="translate(-6,2) scale(1,1)"><path fill="none" stroke="#000000" d="M 921 288 L 921 320" stroke-miterlimit="10"/></g><g transform="translate(-6,2) scale(1,1)"><path fill="#000000" stroke="none" d="M 916.790482243984 309.83732514237585 L 921 320 L 925.209517756016 309.83732514237585"/></g><g transform="translate(-6,2) scale(1,1)"><path fill="none" stroke="#000000" d="M 916.790482243984 309.83732514237585 L 921 320 L 925.209517756016 309.83732514237585 L 916.790482243984 309.83732514237585" stroke-miterlimit="10"/></g><g transform="translate(-6,2) scale(1,1)"><rect fill="#ffffff" stroke="none" x="1136" y="192" width="73.18994140625" height="32"/></g><g transform="translate(-6,2) scale(1,1)"><path fill="none" stroke="#000000" d="M 1136 192 L 1209.18994140625 192 L 1209.18994140625 224 L 1136 224 L 1136 192 Z Z" stroke-miterlimit="10"/></g><g transform="translate(-6,2) scale(1,1)"><g><path fill="none" stroke="none"/><text fill="#000000" stroke="none" font-family="Arial" font-size="13px" font-style="normal" font-weight="normal" text-decoration="none" x="1159.594970703125" y="214.5">丢弃</text></g></g><g transform="translate(-6,2) scale(1,1)"><path fill="none" stroke="#000000" d="M 1069 216 L 1136 216" stroke-miterlimit="10"/></g><g transform="translate(-6,2) scale(1,1)"><path fill="#000000" stroke="none" d="M 1125.837325142376 220.209517756016 L 1136 216 L 1125.837325142376 211.790482243984"/></g><g transform="translate(-6,2) scale(1,1)"><path fill="none" stroke="#000000" d="M 1125.837325142376 220.209517756016 L 1136 216 L 1125.837325142376 211.790482243984 L 1125.837325142376 220.209517756016" stroke-miterlimit="10"/></g><g transform="translate(-6,2) scale(1,1)"><g><path fill="none" stroke="none"/><text fill="#000000" stroke="none" font-family="Arial" font-size="13px" font-style="normal" font-weight="normal" text-decoration="none" x="1083" y="208">无权限</text></g></g><g transform="translate(-6,2) scale(1,1)"><path fill="none" stroke="#000000" d="M 1168 192 L 1168 160 M 1168 160 A 8 8 0 0 0 1160 152 L 964 152" stroke-miterlimit="10"/></g><g transform="translate(-6,2) scale(1,1)"><path fill="#000000" stroke="none" d="M 974.1626748576241 147.790482243984 L 964 152 L 974.1626748576241 156.209517756016"/></g><g transform="translate(-6,2) scale(1,1)"><path fill="none" stroke="#000000" d="M 974.1626748576241 147.790482243984 L 964 152 L 974.1626748576241 156.209517756016 L 974.1626748576241 147.790482243984" stroke-miterlimit="10"/></g></g></svg>