<svg version="1.1" xmlns="http://www.w3.org/2000/svg" xmlns:xlink="http://www.w3.org/1999/xlink" width="614.2880859375" height="598"><defs/><g><g transform="translate(-54,-21) scale(1,1)"><rect fill="#C0C0C0" stroke="none" x="375" y="287" width="119.90625" height="145" opacity="0.2"/></g><g transform="translate(-54,-21) scale(1,1)"><rect fill="#ffffff" stroke="none" x="368" y="280" width="119.90625" height="145"/></g><g transform="translate(-54,-21) scale(1,1)"><path fill="none" stroke="#000000" d="M 368 280 L 487.90625 280 L 487.90625 425 L 368 425 L 368 280 Z Z" stroke-miterlimit="10"/></g><g transform="translate(-54,-21) scale(1,1)"><path fill="none" stroke="#000000" d="M 368 305 L 487.90625 305" stroke-miterlimit="10"/></g><g transform="translate(-54,-21) scale(1,1)"><path fill="none" stroke="#000000" d="M 368 388 L 487.90625 388" stroke-miterlimit="10"/></g><g transform="translate(-54,-21) scale(1,1)"><g><path fill="none" stroke="none"/><text fill="#000000" stroke="none" font-family="Arial" font-size="13px" font-style="normal" font-weight="bold" text-decoration="none" x="388.93408203125" y="299.5">DBConnector</text></g></g><g transform="translate(-54,-21) scale(1,1)"><g><path fill="none" stroke="none"/><text fill="#000000" stroke="none" font-family="Arial" font-size="13px" font-style="normal" font-weight="normal" text-decoration="none" x="373" y="322.5">+con</text></g></g><g transform="translate(-54,-21) scale(1,1)"><g><path fill="none" stroke="none"/><text fill="#000000" stroke="none" font-family="Arial" font-size="13px" font-style="normal" font-weight="normal" text-decoration="none" x="373" y="337.5">+dbDriver</text></g></g><g transform="translate(-54,-21) scale(1,1)"><g><path fill="none" stroke="none"/><text fill="#000000" stroke="none" font-family="Arial" font-size="13px" font-style="normal" font-weight="normal" text-decoration="none" x="373" y="352.5">+dbUrl</text></g></g><g transform="translate(-54,-21) scale(1,1)"><g><path fill="none" stroke="none"/><text fill="#000000" stroke="none" font-family="Arial" font-size="13px" font-style="normal" font-weight="normal" text-decoration="none" x="373" y="367.5">+username</text></g></g><g transform="translate(-54,-21) scale(1,1)"><g><path fill="none" stroke="none"/><text fill="#000000" stroke="none" font-family="Arial" font-size="13px" font-style="normal" font-weight="normal" text-decoration="none" x="373" y="382.5">+password</text></g></g><g transform="translate(-54,-21) scale(1,1)"><g><path fill="none" stroke="none"/><text fill="#000000" stroke="none" font-family="Arial" font-size="13px" font-style="normal" font-weight="normal" text-decoration="none" x="373" y="405.5">+initDBConnector()</text></g></g><g transform="translate(-54,-21) scale(1,1)"><g><path fill="none" stroke="none"/><text fill="#000000" stroke="none" font-family="Arial" font-size="13px" font-style="normal" font-weight="normal" text-decoration="none" x="373" y="420.5">+Operation1()</text></g></g><g transform="translate(-54,-21) scale(1,1)"><path fill="none" stroke="#000000" d="M 340 463 L 369 426" stroke-miterlimit="10"/></g><g transform="translate(-54,-21) scale(1,1)"><path fill="#000000" stroke="none" d="M 366.04395808080346 436.595367675166 L 369 426 L 359.4177063811898 431.4018190457391 L 355.4286034090126 443.3152301333287"/></g><g transform="translate(-54,-21) scale(1,1)"><path fill="none" stroke="#000000" d="M 366.04395808080346 436.595367675166 L 369 426 L 359.4177063811898 431.4018190457391 L 355.4286034090126 443.3152301333287 L 366.04395808080346 436.595367675166" stroke-miterlimit="10"/></g><g transform="translate(-54,-21) scale(1,1)"><rect fill="#C0C0C0" stroke="none" x="567" y="471" width="89.58349609375" height="132" opacity="0.2"/></g><g transform="translate(-54,-21) scale(1,1)"><rect fill="#ffffff" stroke="none" x="560" y="464" width="89.58349609375" height="132"/></g><g transform="translate(-54,-21) scale(1,1)"><path fill="none" stroke="#000000" d="M 560 464 L 649.58349609375 464 L 649.58349609375 596 L 560 596 L 560 464 Z Z" stroke-miterlimit="10"/></g><g transform="translate(-54,-21) scale(1,1)"><path fill="none" stroke="#000000" d="M 560 489 L 649.58349609375 489" stroke-miterlimit="10"/></g><g transform="translate(-54,-21) scale(1,1)"><path fill="none" stroke="#000000" d="M 560 587 L 649.58349609375 587" stroke-miterlimit="10"/></g><g transform="translate(-54,-21) scale(1,1)"><g><path fill="none" stroke="none"/><text fill="#000000" stroke="none" font-family="Arial" font-size="13px" font-style="normal" font-weight="bold" text-decoration="none" x="569.752685546875" y="483.5">NewsObject</text></g></g><g transform="translate(-54,-21) scale(1,1)"><g><path fill="none" stroke="none"/><text fill="#000000" stroke="none" font-family="Arial" font-size="13px" font-style="normal" font-weight="normal" text-decoration="none" x="565" y="506.5">+id</text></g></g><g transform="translate(-54,-21) scale(1,1)"><g><path fill="none" stroke="none"/><text fill="#000000" stroke="none" font-family="Arial" font-size="13px" font-style="normal" font-weight="normal" text-decoration="none" x="565" y="521.5">+userid</text></g></g><g transform="translate(-54,-21) scale(1,1)"><g><path fill="none" stroke="none"/><text fill="#000000" stroke="none" font-family="Arial" font-size="13px" font-style="normal" font-weight="normal" text-decoration="none" x="565" y="536.5">+newstittle</text></g></g><g transform="translate(-54,-21) scale(1,1)"><g><path fill="none" stroke="none"/><text fill="#000000" stroke="none" font-family="Arial" font-size="13px" font-style="normal" font-weight="normal" text-decoration="none" x="565" y="551.5">+newscontent</text></g></g><g transform="translate(-54,-21) scale(1,1)"><g><path fill="none" stroke="none"/><text fill="#000000" stroke="none" font-family="Arial" font-size="13px" font-style="normal" font-weight="normal" text-decoration="none" x="565" y="566.5">+publictime</text></g></g><g transform="translate(-54,-21) scale(1,1)"><g><path fill="none" stroke="none"/><text fill="#000000" stroke="none" font-family="Arial" font-size="13px" font-style="normal" font-weight="normal" text-decoration="none" x="565" y="581.5">+power</text></g></g><g transform="translate(-54,-21) scale(1,1)"><rect fill="#C0C0C0" stroke="none" x="71" y="287" width="75.1298828125" height="102" opacity="0.2"/></g><g transform="translate(-54,-21) scale(1,1)"><rect fill="#ffffff" stroke="none" x="64" y="280" width="75.1298828125" height="102"/></g><g transform="translate(-54,-21) scale(1,1)"><path fill="none" stroke="#000000" d="M 64 280 L 139.1298828125 280 L 139.1298828125 382 L 64 382 L 64 280 Z Z" stroke-miterlimit="10"/></g><g transform="translate(-54,-21) scale(1,1)"><path fill="none" stroke="#000000" d="M 64 305 L 139.1298828125 305" stroke-miterlimit="10"/></g><g transform="translate(-54,-21) scale(1,1)"><path fill="none" stroke="#000000" d="M 64 373 L 139.1298828125 373" stroke-miterlimit="10"/></g><g transform="translate(-54,-21) scale(1,1)"><g><path fill="none" stroke="none"/><text fill="#000000" stroke="none" font-family="Arial" font-size="13px" font-style="normal" font-weight="bold" text-decoration="none" x="74.8349609375" y="299.5">UserInfor</text></g></g><g transform="translate(-54,-21) scale(1,1)"><g><path fill="none" stroke="none"/><text fill="#000000" stroke="none" font-family="Arial" font-size="13px" font-style="normal" font-weight="normal" text-decoration="none" x="69" y="322.5">+userid</text></g></g><g transform="translate(-54,-21) scale(1,1)"><g><path fill="none" stroke="none"/><text fill="#000000" stroke="none" font-family="Arial" font-size="13px" font-style="normal" font-weight="normal" text-decoration="none" x="69" y="337.5">+username</text></g></g><g transform="translate(-54,-21) scale(1,1)"><g><path fill="none" stroke="none"/><text fill="#000000" stroke="none" font-family="Arial" font-size="13px" font-style="normal" font-weight="normal" text-decoration="none" x="69" y="352.5">+power</text></g></g><g transform="translate(-54,-21) scale(1,1)"><g><path fill="none" stroke="none"/><text fill="#000000" stroke="none" font-family="Arial" font-size="13px" font-style="normal" font-weight="normal" text-decoration="none" x="69" y="367.5">+usergroup</text></g></g><g transform="translate(-54,-21) scale(1,1)"><rect fill="#C0C0C0" stroke="none" x="191" y="287" width="119.90625" height="115" opacity="0.2"/></g><g transform="translate(-54,-21) scale(1,1)"><rect fill="#ffffff" stroke="none" x="184" y="280" width="119.90625" height="115"/></g><g transform="translate(-54,-21) scale(1,1)"><path fill="none" stroke="#000000" d="M 184 280 L 303.90625 280 L 303.90625 395 L 184 395 L 184 280 Z Z" stroke-miterlimit="10"/></g><g transform="translate(-54,-21) scale(1,1)"><path fill="none" stroke="#000000" d="M 184 305 L 303.90625 305" stroke-miterlimit="10"/></g><g transform="translate(-54,-21) scale(1,1)"><path fill="none" stroke="#000000" d="M 184 358 L 303.90625 358" stroke-miterlimit="10"/></g><g transform="translate(-54,-21) scale(1,1)"><g><path fill="none" stroke="none"/><text fill="#000000" stroke="none" font-family="Arial" font-size="13px" font-style="normal" font-weight="bold" text-decoration="none" x="207.8349609375" y="299.5">UserDBProc</text></g></g><g transform="translate(-54,-21) scale(1,1)"><g><path fill="none" stroke="none"/><text fill="#000000" stroke="none" font-family="Arial" font-size="13px" font-style="normal" font-weight="normal" text-decoration="none" x="189" y="322.5">+dbconfig</text></g></g><g transform="translate(-54,-21) scale(1,1)"><g><path fill="none" stroke="none"/><text fill="#000000" stroke="none" font-family="Arial" font-size="13px" font-style="normal" font-weight="normal" text-decoration="none" x="189" y="337.5">+session</text></g></g><g transform="translate(-54,-21) scale(1,1)"><g><path fill="none" stroke="none"/><text fill="#000000" stroke="none" font-family="Arial" font-size="13px" font-style="normal" font-weight="normal" text-decoration="none" x="189" y="352.5">+con</text></g></g><g transform="translate(-54,-21) scale(1,1)"><g><path fill="none" stroke="none"/><text fill="#000000" stroke="none" font-family="Arial" font-size="13px" font-style="normal" font-weight="normal" text-decoration="none" x="189" y="375.5">+initDBConnector()</text></g></g><g transform="translate(-54,-21) scale(1,1)"><g><path fill="none" stroke="none"/><text fill="#000000" stroke="none" font-family="Arial" font-size="13px" font-style="normal" font-weight="normal" text-decoration="none" x="189" y="390.5">+signin()</text></g></g><g transform="translate(-54,-21) scale(1,1)"><path fill="none" stroke="#000000" d="M 268 463 L 255 396" stroke-miterlimit="10"/></g><g transform="translate(-54,-21) scale(1,1)"><path fill="#000000" stroke="none" d="M 261.0682086636678 405.17479392761425 L 255 396 L 252.80331249352923 406.77843049793967 L 259.190504303817 417.5972144889032"/></g><g transform="translate(-54,-21) scale(1,1)"><path fill="none" stroke="#000000" d="M 261.0682086636678 405.17479392761425 L 255 396 L 252.80331249352923 406.77843049793967 L 259.190504303817 417.5972144889032 L 261.0682086636678 405.17479392761425" stroke-miterlimit="10"/></g><g transform="translate(-54,-21) scale(1,1)"><rect fill="#C0C0C0" stroke="none" x="575" y="287" width="90.2880859375" height="145" opacity="0.2"/></g><g transform="translate(-54,-21) scale(1,1)"><rect fill="#ffffff" stroke="none" x="568" y="280" width="90.2880859375" height="145"/></g><g transform="translate(-54,-21) scale(1,1)"><path fill="none" stroke="#000000" d="M 568 280 L 658.2880859375 280 L 658.2880859375 425 L 568 425 L 568 280 Z Z" stroke-miterlimit="10"/></g><g transform="translate(-54,-21) scale(1,1)"><path fill="none" stroke="#000000" d="M 568 305 L 658.2880859375 305" stroke-miterlimit="10"/></g><g transform="translate(-54,-21) scale(1,1)"><path fill="none" stroke="#000000" d="M 568 373 L 658.2880859375 373" stroke-miterlimit="10"/></g><g transform="translate(-54,-21) scale(1,1)"><g><path fill="none" stroke="none"/><text fill="#000000" stroke="none" font-family="Arial" font-size="13px" font-style="normal" font-weight="bold" text-decoration="none" x="577.739990234375" y="299.5">News object</text></g></g><g transform="translate(-54,-21) scale(1,1)"><g><path fill="none" stroke="none"/><text fill="#000000" stroke="none" font-family="Arial" font-size="13px" font-style="normal" font-weight="normal" text-decoration="none" x="573" y="322.5">+con</text></g></g><g transform="translate(-54,-21) scale(1,1)"><g><path fill="none" stroke="none"/><text fill="#000000" stroke="none" font-family="Arial" font-size="13px" font-style="normal" font-weight="normal" text-decoration="none" x="573" y="337.5">+power</text></g></g><g transform="translate(-54,-21) scale(1,1)"><g><path fill="none" stroke="none"/><text fill="#000000" stroke="none" font-family="Arial" font-size="13px" font-style="normal" font-weight="normal" text-decoration="none" x="573" y="352.5">+username</text></g></g><g transform="translate(-54,-21) scale(1,1)"><g><path fill="none" stroke="none"/><text fill="#000000" stroke="none" font-family="Arial" font-size="13px" font-style="normal" font-weight="normal" text-decoration="none" x="573" y="367.5">+list</text></g></g><g transform="translate(-54,-21) scale(1,1)"><g><path fill="none" stroke="none"/><text fill="#000000" stroke="none" font-family="Arial" font-size="13px" font-style="normal" font-weight="normal" text-decoration="none" x="573" y="390.5">+getNews()</text></g></g><g transform="translate(-54,-21) scale(1,1)"><g><path fill="none" stroke="none"/><text fill="#000000" stroke="none" font-family="Arial" font-size="13px" font-style="normal" font-weight="normal" text-decoration="none" x="573" y="405.5">+hasPower()</text></g></g><g transform="translate(-54,-21) scale(1,1)"><g><path fill="none" stroke="none"/><text fill="#000000" stroke="none" font-family="Arial" font-size="13px" font-style="normal" font-weight="normal" text-decoration="none" x="573" y="420.5">+__getNews()</text></g></g><g transform="translate(-54,-21) scale(1,1)"><rect fill="#C0C0C0" stroke="none" x="223" y="471" width="135.10888671875" height="145" opacity="0.2"/></g><g transform="translate(-54,-21) scale(1,1)"><rect fill="#ffffff" stroke="none" x="216" y="464" width="135.10888671875" height="145"/></g><g transform="translate(-54,-21) scale(1,1)"><path fill="none" stroke="#000000" d="M 216 464 L 351.10888671875 464 L 351.10888671875 609 L 216 609 L 216 464 Z Z" stroke-miterlimit="10"/></g><g transform="translate(-54,-21) scale(1,1)"><path fill="none" stroke="#000000" d="M 216 489 L 351.10888671875 489" stroke-miterlimit="10"/></g><g transform="translate(-54,-21) scale(1,1)"><path fill="none" stroke="#000000" d="M 216 572 L 351.10888671875 572" stroke-miterlimit="10"/></g><g transform="translate(-54,-21) scale(1,1)"><g><path fill="none" stroke="none"/><text fill="#000000" stroke="none" font-family="Arial" font-size="13px" font-style="normal" font-weight="bold" text-decoration="none" x="249.956298828125" y="483.5">DBConfiger</text></g></g><g transform="translate(-54,-21) scale(1,1)"><g><path fill="none" stroke="none"/><text fill="#000000" stroke="none" font-family="Arial" font-size="13px" font-style="normal" font-weight="normal" text-decoration="none" x="221" y="506.5">+theOnlyOneInstance</text></g></g><g transform="translate(-54,-21) scale(1,1)"><g><path fill="none" stroke="none"/><text fill="#000000" stroke="none" font-family="Arial" font-size="13px" font-style="normal" font-weight="normal" text-decoration="none" x="221" y="521.5">+DatabaseDriver</text></g></g><g transform="translate(-54,-21) scale(1,1)"><g><path fill="none" stroke="none"/><text fill="#000000" stroke="none" font-family="Arial" font-size="13px" font-style="normal" font-weight="normal" text-decoration="none" x="221" y="536.5">+DatabaseUrl</text></g></g><g transform="translate(-54,-21) scale(1,1)"><g><path fill="none" stroke="none"/><text fill="#000000" stroke="none" font-family="Arial" font-size="13px" font-style="normal" font-weight="normal" text-decoration="none" x="221" y="551.5">+password</text></g></g><g transform="translate(-54,-21) scale(1,1)"><g><path fill="none" stroke="none"/><text fill="#000000" stroke="none" font-family="Arial" font-size="13px" font-style="normal" font-weight="normal" text-decoration="none" x="221" y="566.5">+username</text></g></g><g transform="translate(-54,-21) scale(1,1)"><g><path fill="none" stroke="none"/><text fill="#000000" stroke="none" font-family="Arial" font-size="13px" font-style="normal" font-weight="normal" text-decoration="none" x="221" y="589.5">+init()</text></g></g><g transform="translate(-54,-21) scale(1,1)"><g><path fill="none" stroke="none"/><text fill="#000000" stroke="none" font-family="Arial" font-size="13px" font-style="normal" font-weight="normal" text-decoration="none" x="221" y="604.5">+getInstance()</text></g></g><g transform="translate(-54,-21) scale(1,1)"><rect fill="#C0C0C0" stroke="none" x="191" y="150" width="89.57080078125" height="72" opacity="0.2"/></g><g transform="translate(-54,-21) scale(1,1)"><rect fill="#ffffff" stroke="none" x="184" y="143" width="89.57080078125" height="72"/></g><g transform="translate(-54,-21) scale(1,1)"><path fill="none" stroke="#000000" d="M 184 143 L 273.57080078125 143 L 273.57080078125 215 L 184 215 L 184 143 Z Z" stroke-miterlimit="10"/></g><g transform="translate(-54,-21) scale(1,1)"><path fill="none" stroke="#000000" d="M 184 168 L 273.57080078125 168" stroke-miterlimit="10"/></g><g transform="translate(-54,-21) scale(1,1)"><path fill="none" stroke="#000000" d="M 184 178 L 273.57080078125 178" stroke-miterlimit="10"/></g><g transform="translate(-54,-21) scale(1,1)"><g><path fill="none" stroke="none"/><text fill="#000000" stroke="none" font-family="Arial" font-size="13px" font-style="normal" font-weight="bold" text-decoration="none" x="210.716796875" y="162.5">Signin</text></g></g><g transform="translate(-54,-21) scale(1,1)"><g><path fill="none" stroke="none"/><text fill="#000000" stroke="none" font-family="Arial" font-size="13px" font-style="normal" font-weight="normal" text-decoration="none" x="189" y="195.5">+doGet()</text></g></g><g transform="translate(-54,-21) scale(1,1)"><g><path fill="none" stroke="none"/><text fill="#000000" stroke="none" font-family="Arial" font-size="13px" font-style="normal" font-weight="normal" text-decoration="none" x="189" y="210.5">+doPost()</text></g></g><g transform="translate(-54,-21) scale(1,1)"><rect fill="#C0C0C0" stroke="none" x="343" y="150" width="89.57080078125" height="72" opacity="0.2"/></g><g transform="translate(-54,-21) scale(1,1)"><rect fill="#ffffff" stroke="none" x="336" y="143" width="89.57080078125" height="72"/></g><g transform="translate(-54,-21) scale(1,1)"><path fill="none" stroke="#000000" d="M 336 143 L 425.57080078125 143 L 425.57080078125 215 L 336 215 L 336 143 Z Z" stroke-miterlimit="10"/></g><g transform="translate(-54,-21) scale(1,1)"><path fill="none" stroke="#000000" d="M 336 168 L 425.57080078125 168" stroke-miterlimit="10"/></g><g transform="translate(-54,-21) scale(1,1)"><path fill="none" stroke="#000000" d="M 336 178 L 425.57080078125 178" stroke-miterlimit="10"/></g><g transform="translate(-54,-21) scale(1,1)"><g><path fill="none" stroke="none"/><text fill="#000000" stroke="none" font-family="Arial" font-size="13px" font-style="normal" font-weight="bold" text-decoration="none" x="360.904541015625" y="162.5">Logout</text></g></g><g transform="translate(-54,-21) scale(1,1)"><g><path fill="none" stroke="none"/><text fill="#000000" stroke="none" font-family="Arial" font-size="13px" font-style="normal" font-weight="normal" text-decoration="none" x="341" y="195.5">+doGet()</text></g></g><g transform="translate(-54,-21) scale(1,1)"><g><path fill="none" stroke="none"/><text fill="#000000" stroke="none" font-family="Arial" font-size="13px" font-style="normal" font-weight="normal" text-decoration="none" x="341" y="210.5">+doPost()</text></g></g><g transform="translate(-54,-21) scale(1,1)"><rect fill="#C0C0C0" stroke="none" x="479" y="150" width="89.57080078125" height="72" opacity="0.2"/></g><g transform="translate(-54,-21) scale(1,1)"><rect fill="#ffffff" stroke="none" x="472" y="143" width="89.57080078125" height="72"/></g><g transform="translate(-54,-21) scale(1,1)"><path fill="none" stroke="#000000" d="M 472 143 L 561.57080078125 143 L 561.57080078125 215 L 472 215 L 472 143 Z Z" stroke-miterlimit="10"/></g><g transform="translate(-54,-21) scale(1,1)"><path fill="none" stroke="#000000" d="M 472 168 L 561.57080078125 168" stroke-miterlimit="10"/></g><g transform="translate(-54,-21) scale(1,1)"><path fill="none" stroke="#000000" d="M 472 178 L 561.57080078125 178" stroke-miterlimit="10"/></g><g transform="translate(-54,-21) scale(1,1)"><g><path fill="none" stroke="none"/><text fill="#000000" stroke="none" font-family="Arial" font-size="13px" font-style="normal" font-weight="bold" text-decoration="none" x="500.5322265625" y="162.5">News</text></g></g><g transform="translate(-54,-21) scale(1,1)"><g><path fill="none" stroke="none"/><text fill="#000000" stroke="none" font-family="Arial" font-size="13px" font-style="normal" font-weight="normal" text-decoration="none" x="477" y="195.5">+doGet()</text></g></g><g transform="translate(-54,-21) scale(1,1)"><g><path fill="none" stroke="none"/><text fill="#000000" stroke="none" font-family="Arial" font-size="13px" font-style="normal" font-weight="normal" text-decoration="none" x="477" y="210.5">+doPost()</text></g></g><g transform="translate(-54,-21) scale(1,1)"><rect fill="#C0C0C0" stroke="none" x="343" y="38" width="78.34814453125" height="44" opacity="0.2"/></g><g transform="translate(-54,-21) scale(1,1)"><rect fill="#ffffff" stroke="none" x="336" y="31" width="78.34814453125" height="44"/></g><g transform="translate(-54,-21) scale(1,1)"><path fill="none" stroke="#000000" d="M 336 31 L 414.34814453125 31 L 414.34814453125 75 L 336 75 L 336 31 Z Z" stroke-miterlimit="10"/></g><g transform="translate(-54,-21) scale(1,1)"><path fill="none" stroke="#000000" d="M 336 56 L 414.34814453125 56" stroke-miterlimit="10"/></g><g transform="translate(-54,-21) scale(1,1)"><path fill="none" stroke="#000000" d="M 336 66 L 414.34814453125 66" stroke-miterlimit="10"/></g><g transform="translate(-54,-21) scale(1,1)"><g><path fill="none" stroke="none"/><text fill="#000000" stroke="none" font-family="Arial" font-size="13px" font-style="normal" font-weight="bold" text-decoration="none" x="343.023193359375" y="50.5">HttpServlet</text></g></g><g transform="translate(-54,-21) scale(1,1)"><path fill="none" stroke="#000000" d="M 271 142 L 348 76" stroke-miterlimit="10"/></g><g transform="translate(-54,-21) scale(1,1)"><path fill="#FFFFFF" stroke="none" d="M 338.046879717364 95.6197705552175 L 348 76 L 327.08880834926424 82.83535395910116"/></g><g transform="translate(-54,-21) scale(1,1)"><path fill="none" stroke="#000000" d="M 338.046879717364 95.6197705552175 L 348 76 L 327.08880834926424 82.83535395910116 L 338.046879717364 95.6197705552175" stroke-miterlimit="10"/></g><g transform="translate(-54,-21) scale(1,1)"><path fill="none" stroke="#000000" d="M 379 142 L 376 76" stroke-miterlimit="10"/></g><g transform="translate(-54,-21) scale(1,1)"><path fill="#FFFFFF" stroke="none" d="M 385.3332782033562 95.92209622451301 L 376 76 L 368.51257497248974 96.68667364409785"/></g><g transform="translate(-54,-21) scale(1,1)"><path fill="none" stroke="#000000" d="M 385.3332782033562 95.92209622451301 L 376 76 L 368.51257497248974 96.68667364409785 L 385.3332782033562 95.92209622451301" stroke-miterlimit="10"/></g><g transform="translate(-54,-21) scale(1,1)"><path fill="none" stroke="#000000" d="M 475 142 L 401 76" stroke-miterlimit="10"/></g><g transform="translate(-54,-21) scale(1,1)"><path fill="#FFFFFF" stroke="none" d="M 421.77255073034416 83.24576677483327 L 401 76 L 410.56488066258714 95.81194230534872"/></g><g transform="translate(-54,-21) scale(1,1)"><path fill="none" stroke="#000000" d="M 421.77255073034416 83.24576677483327 L 401 76 L 410.56488066258714 95.81194230534872 L 421.77255073034416 83.24576677483327" stroke-miterlimit="10"/></g><g transform="translate(-54,-21) scale(1,1)"><path fill="none" stroke="#000000" d="M 237 279 L 232 216" stroke-miterlimit="10" stroke-dasharray="3"/></g><g transform="translate(-54,-21) scale(1,1)"><path fill="none" stroke="#000000" d="M 237.00035581338977 225.79777738772927 L 232 216 L 228.6077106725739 226.46386033541307" stroke-miterlimit="10"/></g><g transform="translate(-54,-21) scale(1,1)"><path fill="none" stroke="#000000" d="M 572 279 L 537 216" stroke-miterlimit="10"/></g><g transform="translate(-54,-21) scale(1,1)"><path fill="#000000" stroke="none" d="M 545.6152117818561 222.83945362976948 L 537 216 L 538.2556506310877 226.92809871352966 L 547.6841444859299 235.23146007467383"/></g><g transform="translate(-54,-21) scale(1,1)"><path fill="none" stroke="#000000" d="M 545.6152117818561 222.83945362976948 L 537 216 L 538.2556506310877 226.92809871352966 L 547.6841444859299 235.23146007467383 L 545.6152117818561 222.83945362976948" stroke-miterlimit="10"/></g><g transform="translate(-54,-21) scale(1,1)"><path fill="none" stroke="#000000" d="M 607 463 L 609 426" stroke-miterlimit="10"/></g><g transform="translate(-54,-21) scale(1,1)"><path fill="#000000" stroke="none" d="M 612.6548484319314 436.3750702619119 L 609 426 L 604.248085572943 435.9206506479125 L 607.81254432367 447.96793001210517"/></g><g transform="translate(-54,-21) scale(1,1)"><path fill="none" stroke="#000000" d="M 612.6548484319314 436.3750702619119 L 609 426 L 604.248085572943 435.9206506479125 L 607.81254432367 447.96793001210517 L 612.6548484319314 436.3750702619119" stroke-miterlimit="10"/></g><g transform="translate(-54,-21) scale(1,1)"><path fill="none" stroke="#000000" d="M 367 300 L 271 216" stroke-miterlimit="10"/></g><g transform="translate(-54,-21) scale(1,1)"><path fill="#000000" stroke="none" d="M 281.4201790929724 219.52418326288262 L 271 216 L 275.8762054144906 225.86015318114747 L 287.5566872835513 230.4871013731074"/></g><g transform="translate(-54,-21) scale(1,1)"><path fill="none" stroke="#000000" d="M 281.4201790929724 219.52418326288262 L 271 216 L 275.8762054144906 225.86015318114747 L 287.5566872835513 230.4871013731074 L 281.4201790929724 219.52418326288262" stroke-miterlimit="10"/></g><g transform="translate(-54,-21) scale(1,1)"><path fill="none" stroke="#000000" d="M 407 279 L 390 216" stroke-miterlimit="10"/></g><g transform="translate(-54,-21) scale(1,1)"><path fill="#000000" stroke="none" d="M 396.7117638415731 224.71505743727212 L 390 216 L 388.5834575137736 226.90840993842437 L 395.73150629384895 237.24028803014616"/></g><g transform="translate(-54,-21) scale(1,1)"><path fill="none" stroke="#000000" d="M 396.7117638415731 224.71505743727212 L 390 216 L 388.5834575137736 226.90840993842437 L 395.73150629384895 237.24028803014616 L 396.7117638415731 224.71505743727212" stroke-miterlimit="10"/></g><g transform="translate(-54,-21) scale(1,1)"><path fill="none" stroke="#000000" d="M 465 279 L 497 216" stroke-miterlimit="10"/></g><g transform="translate(-54,-21) scale(1,1)"><path fill="#000000" stroke="none" d="M 496.1507926843258 226.9671713278769 L 497 216 L 488.6445585320771 223.15448096482996 L 487.0369599502036 235.6147350980367"/></g><g transform="translate(-54,-21) scale(1,1)"><path fill="none" stroke="#000000" d="M 496.1507926843258 226.9671713278769 L 497 216 L 488.6445585320771 223.15448096482996 L 487.0369599502036 235.6147350980367 L 496.1507926843258 226.9671713278769" stroke-miterlimit="10"/></g><g transform="translate(-54,-21) scale(1,1)"><path fill="none" stroke="#000000" d="M 140 284 L 197 216" stroke-miterlimit="10" stroke-dasharray="3"/></g><g transform="translate(-54,-21) scale(1,1)"><path fill="none" stroke="#000000" d="M 193.69756001873097 226.49256356521684 L 197 216 L 187.2454594457874 221.08418514377883" stroke-miterlimit="10"/></g></g></svg>